<mxfile host="app.diagrams.net" agent="Mozilla/5.0 (Windows NT 10.0; Win64; x64) AppleWebKit/537.36 (KHTML, like Gecko) Chrome/132.0.0.0 Safari/537.36 Edg/132.0.0.0" version="26.0.11">
  <diagram name="Página-1" id="-Mq-8sCcchrB9tYHp7MC">
    <mxGraphModel dx="872" dy="443" grid="1" gridSize="10" guides="1" tooltips="1" connect="1" arrows="1" fold="1" page="1" pageScale="1" pageWidth="827" pageHeight="1169" math="0" shadow="0">
      <root>
        <mxCell id="0" />
        <mxCell id="1" parent="0" />
        <mxCell id="HywKGdeAbVBfcAcetKgU-8" style="edgeStyle=orthogonalEdgeStyle;rounded=0;orthogonalLoop=1;jettySize=auto;html=1;" edge="1" parent="1" source="HywKGdeAbVBfcAcetKgU-1" target="HywKGdeAbVBfcAcetKgU-4">
          <mxGeometry relative="1" as="geometry" />
        </mxCell>
        <mxCell id="HywKGdeAbVBfcAcetKgU-9" style="edgeStyle=orthogonalEdgeStyle;rounded=0;orthogonalLoop=1;jettySize=auto;html=1;entryX=0;entryY=0.5;entryDx=0;entryDy=0;" edge="1" parent="1" source="HywKGdeAbVBfcAcetKgU-1" target="HywKGdeAbVBfcAcetKgU-5">
          <mxGeometry relative="1" as="geometry" />
        </mxCell>
        <mxCell id="HywKGdeAbVBfcAcetKgU-10" style="edgeStyle=orthogonalEdgeStyle;rounded=0;orthogonalLoop=1;jettySize=auto;html=1;" edge="1" parent="1" source="HywKGdeAbVBfcAcetKgU-1" target="HywKGdeAbVBfcAcetKgU-7">
          <mxGeometry relative="1" as="geometry" />
        </mxCell>
        <mxCell id="HywKGdeAbVBfcAcetKgU-1" value="USUARIO" style="rounded=1;whiteSpace=wrap;html=1;" vertex="1" parent="1">
          <mxGeometry x="20" y="40" width="120" height="60" as="geometry" />
        </mxCell>
        <mxCell id="HywKGdeAbVBfcAcetKgU-3" value="QUESTÕES" style="rounded=1;whiteSpace=wrap;html=1;" vertex="1" parent="1">
          <mxGeometry x="650" y="40" width="120" height="60" as="geometry" />
        </mxCell>
        <mxCell id="HywKGdeAbVBfcAcetKgU-12" style="edgeStyle=orthogonalEdgeStyle;rounded=0;orthogonalLoop=1;jettySize=auto;html=1;" edge="1" parent="1" source="HywKGdeAbVBfcAcetKgU-4" target="HywKGdeAbVBfcAcetKgU-3">
          <mxGeometry relative="1" as="geometry" />
        </mxCell>
        <mxCell id="HywKGdeAbVBfcAcetKgU-4" value="SIMULADO" style="rounded=1;whiteSpace=wrap;html=1;" vertex="1" parent="1">
          <mxGeometry x="240" y="40" width="120" height="60" as="geometry" />
        </mxCell>
        <mxCell id="HywKGdeAbVBfcAcetKgU-5" value="RANKING" style="rounded=1;whiteSpace=wrap;html=1;" vertex="1" parent="1">
          <mxGeometry x="240" y="150" width="120" height="60" as="geometry" />
        </mxCell>
        <mxCell id="HywKGdeAbVBfcAcetKgU-6" value="JORNADA" style="rounded=1;whiteSpace=wrap;html=1;" vertex="1" parent="1">
          <mxGeometry x="240" y="270" width="120" height="60" as="geometry" />
        </mxCell>
        <mxCell id="HywKGdeAbVBfcAcetKgU-11" style="edgeStyle=orthogonalEdgeStyle;rounded=0;orthogonalLoop=1;jettySize=auto;html=1;" edge="1" parent="1" source="HywKGdeAbVBfcAcetKgU-7" target="HywKGdeAbVBfcAcetKgU-6">
          <mxGeometry relative="1" as="geometry" />
        </mxCell>
        <mxCell id="HywKGdeAbVBfcAcetKgU-7" value="PROGRESSO JORNADA" style="rounded=1;whiteSpace=wrap;html=1;" vertex="1" parent="1">
          <mxGeometry x="20" y="270" width="120" height="60" as="geometry" />
        </mxCell>
      </root>
    </mxGraphModel>
  </diagram>
</mxfile>
